<svg width="32" height="16" viewBox="0 0 32 16" fill="none" xmlns="http://www.w3.org/2000/svg">
<path d="M0.409091 12V0.363636H4.47727C5.28788 0.363636 5.95644 0.503788 6.48295 0.784091C7.00947 1.06061 7.40152 1.43371 7.65909 1.90341C7.91667 2.36932 8.04545 2.88636 8.04545 3.45455C8.04545 3.95455 7.95644 4.36742 7.77841 4.69318C7.60417 5.01894 7.37311 5.27652 7.08523 5.46591C6.80114 5.6553 6.49242 5.79545 6.15909 5.88636V6C6.51515 6.02273 6.87311 6.14773 7.23295 6.375C7.5928 6.60227 7.89394 6.92803 8.13636 7.35227C8.37879 7.77651 8.5 8.29545 8.5 8.90909C8.5 9.49242 8.36742 10.017 8.10227 10.483C7.83712 10.9489 7.41856 11.3182 6.84659 11.5909C6.27462 11.8636 5.5303 12 4.61364 12H0.409091ZM1.81818 10.75H4.61364C5.53409 10.75 6.1875 10.572 6.57386 10.2159C6.96402 9.85606 7.15909 9.42045 7.15909 8.90909C7.15909 8.51515 7.05871 8.15152 6.85795 7.81818C6.6572 7.48106 6.37121 7.21212 6 7.01136C5.62879 6.80682 5.18939 6.70455 4.68182 6.70455H1.81818V10.75ZM1.81818 5.47727H4.43182C4.85606 5.47727 5.23864 5.39394 5.57955 5.22727C5.92424 5.06061 6.19697 4.82576 6.39773 4.52273C6.60227 4.2197 6.70455 3.86364 6.70455 3.45455C6.70455 2.94318 6.52652 2.50947 6.17045 2.15341C5.81439 1.79356 5.25 1.61364 4.47727 1.61364H1.81818V5.47727ZM11.9744 0.363636V12H10.6335V0.363636H11.9744ZM17.9759 12.1818C17.188 12.1818 16.4967 11.9943 15.902 11.6193C15.3111 11.2443 14.849 10.7197 14.5156 10.0455C14.1861 9.37121 14.0213 8.58333 14.0213 7.68182C14.0213 6.77273 14.1861 5.97917 14.5156 5.30114C14.849 4.62311 15.3111 4.09659 15.902 3.72159C16.4967 3.34659 17.188 3.15909 17.9759 3.15909C18.7637 3.15909 19.4531 3.34659 20.044 3.72159C20.6387 4.09659 21.1009 4.62311 21.4304 5.30114C21.7637 5.97917 21.9304 6.77273 21.9304 7.68182C21.9304 8.58333 21.7637 9.37121 21.4304 10.0455C21.1009 10.7197 20.6387 11.2443 20.044 11.6193C19.4531 11.9943 18.7637 12.1818 17.9759 12.1818ZM17.9759 10.9773C18.5743 10.9773 19.0668 10.8239 19.4531 10.517C19.8395 10.2102 20.1255 9.80682 20.3111 9.30682C20.4967 8.80682 20.5895 8.26515 20.5895 7.68182C20.5895 7.09848 20.4967 6.55492 20.3111 6.05114C20.1255 5.54735 19.8395 5.14015 19.4531 4.82955C19.0668 4.51894 18.5743 4.36364 17.9759 4.36364C17.3774 4.36364 16.8849 4.51894 16.4986 4.82955C16.1122 5.14015 15.8262 5.54735 15.6406 6.05114C15.455 6.55492 15.3622 7.09848 15.3622 7.68182C15.3622 8.26515 15.455 8.80682 15.6406 9.30682C15.8262 9.80682 16.1122 10.2102 16.4986 10.517C16.8849 10.8239 17.3774 10.9773 17.9759 10.9773ZM27.5 15.4545C26.8523 15.4545 26.2955 15.3712 25.8295 15.2045C25.3636 15.0417 24.9754 14.8258 24.6648 14.5568C24.358 14.2917 24.1136 14.0076 23.9318 13.7045L25 12.9545C25.1212 13.1136 25.2746 13.2955 25.4602 13.5C25.6458 13.7083 25.8996 13.8883 26.2216 14.0398C26.5473 14.1951 26.9735 14.2727 27.5 14.2727C28.2045 14.2727 28.786 14.1023 29.2443 13.7614C29.7027 13.4205 29.9318 12.8864 29.9318 12.1591V10.3864H29.8182C29.7197 10.5455 29.5795 10.7424 29.3977 10.9773C29.2197 11.2083 28.9621 11.4148 28.625 11.5966C28.2917 11.7746 27.8409 11.8636 27.2727 11.8636C26.5682 11.8636 25.9356 11.697 25.375 11.3636C24.8182 11.0303 24.3769 10.5455 24.0511 9.90909C23.7292 9.27273 23.5682 8.5 23.5682 7.59091C23.5682 6.69697 23.7254 5.91856 24.0398 5.25568C24.3542 4.58901 24.7917 4.07386 25.3523 3.71023C25.9129 3.3428 26.5606 3.15909 27.2955 3.15909C27.8636 3.15909 28.3144 3.25379 28.6477 3.44318C28.9848 3.62879 29.2424 3.84091 29.4205 4.07955C29.6023 4.31439 29.7424 4.50758 29.8409 4.65909H29.9773V3.27273H31.2727V12.25C31.2727 13 31.1023 13.6098 30.7614 14.0795C30.4242 14.553 29.9697 14.8996 29.3977 15.1193C28.8295 15.3428 28.197 15.4545 27.5 15.4545ZM27.4545 10.6591C27.9924 10.6591 28.447 10.536 28.8182 10.2898C29.1894 10.0436 29.4716 9.68939 29.6648 9.22727C29.858 8.76515 29.9545 8.21212 29.9545 7.56818C29.9545 6.93939 29.8598 6.38447 29.6705 5.90341C29.4811 5.42235 29.2008 5.04545 28.8295 4.77273C28.4583 4.5 28 4.36364 27.4545 4.36364C26.8864 4.36364 26.4129 4.50758 26.0341 4.79545C25.6591 5.08333 25.3769 5.4697 25.1875 5.95455C25.0019 6.43939 24.9091 6.97727 24.9091 7.56818C24.9091 8.17424 25.0038 8.71023 25.1932 9.17614C25.3864 9.63826 25.6705 10.0019 26.0455 10.267C26.4242 10.5284 26.8939 10.6591 27.4545 10.6591Z" fill="#232E35"/>
</svg>
