<svg width="83" height="16" viewBox="0 0 83 16" fill="none" xmlns="http://www.w3.org/2000/svg">
<path d="M0.409091 12V0.363636H7.43182V1.61364H1.81818V5.54545H7.06818V6.79545H1.81818V10.75H7.52273V12H0.409091ZM10.7898 3.27273L12.8807 6.84091L14.9716 3.27273H16.517L13.6989 7.63636L16.517 12H14.9716L12.8807 8.61364L10.7898 12H9.24432L12.017 7.63636L9.24432 3.27273H10.7898ZM18.4304 15.2727V3.27273H19.7259V4.65909H19.8849C19.9834 4.50758 20.1198 4.31439 20.294 4.07955C20.4721 3.84091 20.7259 3.62879 21.0554 3.44318C21.3887 3.25379 21.8395 3.15909 22.4077 3.15909C23.1425 3.15909 23.7902 3.3428 24.3509 3.71023C24.9115 4.07765 25.349 4.59848 25.6634 5.27273C25.9777 5.94697 26.1349 6.74242 26.1349 7.65909C26.1349 8.58333 25.9777 9.38447 25.6634 10.0625C25.349 10.7367 24.9134 11.2595 24.3565 11.6307C23.7997 11.9981 23.1577 12.1818 22.4304 12.1818C21.8698 12.1818 21.4209 12.089 21.0838 11.9034C20.7467 11.714 20.4872 11.5 20.3054 11.2614C20.1236 11.0189 19.9834 10.8182 19.8849 10.6591H19.7713V15.2727H18.4304ZM19.7486 7.63636C19.7486 8.29545 19.8452 8.87689 20.0384 9.38068C20.2315 9.88068 20.5137 10.2727 20.8849 10.5568C21.2562 10.8371 21.7107 10.9773 22.2486 10.9773C22.8092 10.9773 23.277 10.8295 23.652 10.5341C24.0308 10.2348 24.3149 9.83333 24.5043 9.32955C24.6974 8.82197 24.794 8.25758 24.794 7.63636C24.794 7.02273 24.6993 6.4697 24.5099 5.97727C24.3243 5.48106 24.0421 5.08902 23.6634 4.80114C23.2884 4.50947 22.8168 4.36364 22.2486 4.36364C21.7031 4.36364 21.2448 4.50189 20.8736 4.77841C20.5024 5.05114 20.2221 5.43371 20.0327 5.92614C19.8433 6.41477 19.7486 6.98485 19.7486 7.63636ZM31.8395 12.1818C30.9986 12.1818 30.2732 11.9962 29.6634 11.625C29.0573 11.25 28.5895 10.7273 28.2599 10.0568C27.9342 9.38258 27.7713 8.59848 27.7713 7.70455C27.7713 6.81061 27.9342 6.02273 28.2599 5.34091C28.5895 4.6553 29.0478 4.12121 29.6349 3.73864C30.2259 3.35227 30.9152 3.15909 31.7031 3.15909C32.1577 3.15909 32.6065 3.23485 33.0497 3.38636C33.4929 3.53788 33.8963 3.78409 34.2599 4.125C34.6236 4.46212 34.9134 4.90909 35.1293 5.46591C35.3452 6.02273 35.4531 6.70833 35.4531 7.52273V8.09091H28.7259V6.93182H34.0895C34.0895 6.43939 33.991 6 33.794 5.61364C33.6009 5.22727 33.3243 4.92235 32.9645 4.69886C32.6084 4.47538 32.188 4.36364 31.7031 4.36364C31.169 4.36364 30.7069 4.49621 30.3168 4.76136C29.9304 5.02273 29.633 5.36364 29.4247 5.78409C29.2164 6.20455 29.1122 6.6553 29.1122 7.13636V7.90909C29.1122 8.56818 29.2259 9.12689 29.4531 9.58523C29.6842 10.0398 30.0043 10.3864 30.4134 10.625C30.8224 10.8598 31.2978 10.9773 31.8395 10.9773C32.1918 10.9773 32.5099 10.928 32.794 10.8295C33.0819 10.7273 33.33 10.5758 33.5384 10.375C33.7467 10.1705 33.9077 9.91667 34.0213 9.61364L35.3168 9.97727C35.1804 10.4167 34.9512 10.803 34.6293 11.1364C34.3073 11.4659 33.9096 11.7235 33.4361 11.9091C32.9626 12.0909 32.4304 12.1818 31.8395 12.1818ZM37.4929 12V3.27273H38.7884V4.59091H38.8793C39.0384 4.15909 39.3262 3.80871 39.7429 3.53977C40.1596 3.27083 40.6293 3.13636 41.152 3.13636C41.2505 3.13636 41.3736 3.13826 41.5213 3.14205C41.669 3.14583 41.7808 3.15152 41.8565 3.15909V4.52273C41.8111 4.51136 41.7069 4.49432 41.544 4.47159C41.3849 4.44508 41.2164 4.43182 41.0384 4.43182C40.6141 4.43182 40.2353 4.52083 39.902 4.69886C39.5724 4.87311 39.3111 5.11553 39.1179 5.42614C38.9285 5.73295 38.8338 6.08333 38.8338 6.47727V12H37.4929ZM43.446 12V3.27273H44.7869V12H43.446ZM44.1278 1.81818C43.8665 1.81818 43.6411 1.72917 43.4517 1.55114C43.2661 1.37311 43.1733 1.15909 43.1733 0.909091C43.1733 0.659091 43.2661 0.445076 43.4517 0.267045C43.6411 0.089015 43.8665 0 44.1278 0C44.3892 0 44.6127 0.089015 44.7983 0.267045C44.9877 0.445076 45.0824 0.659091 45.0824 0.909091C45.0824 1.15909 44.9877 1.37311 44.7983 1.55114C44.6127 1.72917 44.3892 1.81818 44.1278 1.81818ZM50.902 12.1818C50.0611 12.1818 49.3357 11.9962 48.7259 11.625C48.1198 11.25 47.652 10.7273 47.3224 10.0568C46.9967 9.38258 46.8338 8.59848 46.8338 7.70455C46.8338 6.81061 46.9967 6.02273 47.3224 5.34091C47.652 4.6553 48.1103 4.12121 48.6974 3.73864C49.2884 3.35227 49.9777 3.15909 50.7656 3.15909C51.2202 3.15909 51.669 3.23485 52.1122 3.38636C52.5554 3.53788 52.9588 3.78409 53.3224 4.125C53.6861 4.46212 53.9759 4.90909 54.1918 5.46591C54.4077 6.02273 54.5156 6.70833 54.5156 7.52273V8.09091H47.7884V6.93182H53.152C53.152 6.43939 53.0535 6 52.8565 5.61364C52.6634 5.22727 52.3868 4.92235 52.027 4.69886C51.6709 4.47538 51.2505 4.36364 50.7656 4.36364C50.2315 4.36364 49.7694 4.49621 49.3793 4.76136C48.9929 5.02273 48.6955 5.36364 48.4872 5.78409C48.2789 6.20455 48.1747 6.6553 48.1747 7.13636V7.90909C48.1747 8.56818 48.2884 9.12689 48.5156 9.58523C48.7467 10.0398 49.0668 10.3864 49.4759 10.625C49.8849 10.8598 50.3603 10.9773 50.902 10.9773C51.2543 10.9773 51.5724 10.928 51.8565 10.8295C52.1444 10.7273 52.3925 10.5758 52.6009 10.375C52.8092 10.1705 52.9702 9.91667 53.0838 9.61364L54.3793 9.97727C54.2429 10.4167 54.0137 10.803 53.6918 11.1364C53.3698 11.4659 52.9721 11.7235 52.4986 11.9091C52.0251 12.0909 51.4929 12.1818 50.902 12.1818ZM57.8963 6.75V12H56.5554V3.27273H57.8509V4.63636H57.9645C58.169 4.19318 58.4796 3.83712 58.8963 3.56818C59.313 3.29545 59.8509 3.15909 60.5099 3.15909C61.1009 3.15909 61.6179 3.2803 62.0611 3.52273C62.5043 3.76136 62.849 4.125 63.0952 4.61364C63.3414 5.09848 63.4645 5.71212 63.4645 6.45455V12H62.1236V6.54545C62.1236 5.85985 61.9455 5.32576 61.5895 4.94318C61.2334 4.55682 60.7448 4.36364 60.1236 4.36364C59.6955 4.36364 59.313 4.45644 58.9759 4.64205C58.6425 4.82765 58.3793 5.09848 58.1861 5.45455C57.9929 5.81061 57.8963 6.24242 57.8963 6.75ZM69.4602 12.1818C68.642 12.1818 67.9375 11.9886 67.3466 11.6023C66.7557 11.2159 66.3011 10.6837 65.983 10.0057C65.6648 9.32765 65.5057 8.55303 65.5057 7.68182C65.5057 6.79545 65.6686 6.01326 65.9943 5.33523C66.3239 4.65341 66.7822 4.12121 67.3693 3.73864C67.9602 3.35227 68.6496 3.15909 69.4375 3.15909C70.0511 3.15909 70.6042 3.27273 71.0966 3.5C71.589 3.72727 71.9924 4.04545 72.3068 4.45455C72.6212 4.86364 72.8163 5.34091 72.892 5.88636H71.5511C71.4489 5.48864 71.2216 5.13636 70.8693 4.82955C70.5208 4.51894 70.0511 4.36364 69.4602 4.36364C68.9375 4.36364 68.4792 4.5 68.0852 4.77273C67.6951 5.04167 67.3902 5.42235 67.1705 5.91477C66.9545 6.40341 66.8466 6.97727 66.8466 7.63636C66.8466 8.31061 66.9527 8.89773 67.1648 9.39773C67.3807 9.89773 67.6837 10.286 68.0739 10.5625C68.4678 10.839 68.9299 10.9773 69.4602 10.9773C69.8087 10.9773 70.125 10.9167 70.4091 10.7955C70.6932 10.6742 70.9337 10.5 71.1307 10.2727C71.3277 10.0455 71.4678 9.77273 71.5511 9.45455H72.892C72.8163 9.9697 72.6288 10.4337 72.3295 10.8466C72.0341 11.2557 71.642 11.5814 71.1534 11.8239C70.6686 12.0625 70.1042 12.1818 69.4602 12.1818ZM78.5114 12.1818C77.6705 12.1818 76.9451 11.9962 76.3352 11.625C75.7292 11.25 75.2614 10.7273 74.9318 10.0568C74.6061 9.38258 74.4432 8.59848 74.4432 7.70455C74.4432 6.81061 74.6061 6.02273 74.9318 5.34091C75.2614 4.6553 75.7197 4.12121 76.3068 3.73864C76.8977 3.35227 77.5871 3.15909 78.375 3.15909C78.8295 3.15909 79.2784 3.23485 79.7216 3.38636C80.1648 3.53788 80.5682 3.78409 80.9318 4.125C81.2955 4.46212 81.5852 4.90909 81.8011 5.46591C82.017 6.02273 82.125 6.70833 82.125 7.52273V8.09091H75.3977V6.93182H80.7614C80.7614 6.43939 80.6629 6 80.4659 5.61364C80.2727 5.22727 79.9962 4.92235 79.6364 4.69886C79.2803 4.47538 78.8598 4.36364 78.375 4.36364C77.8409 4.36364 77.3788 4.49621 76.9886 4.76136C76.6023 5.02273 76.3049 5.36364 76.0966 5.78409C75.8883 6.20455 75.7841 6.6553 75.7841 7.13636V7.90909C75.7841 8.56818 75.8977 9.12689 76.125 9.58523C76.3561 10.0398 76.6761 10.3864 77.0852 10.625C77.4943 10.8598 77.9697 10.9773 78.5114 10.9773C78.8636 10.9773 79.1818 10.928 79.4659 10.8295C79.7538 10.7273 80.0019 10.5758 80.2102 10.375C80.4186 10.1705 80.5795 9.91667 80.6932 9.61364L81.9886 9.97727C81.8523 10.4167 81.6231 10.803 81.3011 11.1364C80.9792 11.4659 80.5814 11.7235 80.108 11.9091C79.6345 12.0909 79.1023 12.1818 78.5114 12.1818Z" fill="#232E35"/>
</svg>
