<svg width="71" height="14" viewBox="0 0 71 14" fill="none" xmlns="http://www.w3.org/2000/svg">
<path d="M0.409091 13V1.36364H4.34091C5.25379 1.36364 6 1.52841 6.57955 1.85795C7.16288 2.18371 7.5947 2.625 7.875 3.18182C8.1553 3.73864 8.29545 4.35985 8.29545 5.04545C8.29545 5.73106 8.1553 6.35417 7.875 6.91477C7.59849 7.47538 7.17046 7.92235 6.59091 8.25568C6.01136 8.58523 5.26894 8.75 4.36364 8.75H1.54545V7.5H4.31818C4.94318 7.5 5.44508 7.39205 5.82386 7.17614C6.20265 6.96023 6.47727 6.66856 6.64773 6.30114C6.82197 5.92992 6.90909 5.51136 6.90909 5.04545C6.90909 4.57955 6.82197 4.16288 6.64773 3.79545C6.47727 3.42803 6.20076 3.14015 5.81818 2.93182C5.43561 2.7197 4.92803 2.61364 4.29545 2.61364H1.81818V13H0.409091ZM13.8352 13.1818C13.0473 13.1818 12.3561 12.9943 11.7614 12.6193C11.1705 12.2443 10.7083 11.7197 10.375 11.0455C10.0455 10.3712 9.88068 9.58333 9.88068 8.68182C9.88068 7.77273 10.0455 6.97917 10.375 6.30114C10.7083 5.62311 11.1705 5.09659 11.7614 4.72159C12.3561 4.34659 13.0473 4.15909 13.8352 4.15909C14.6231 4.15909 15.3125 4.34659 15.9034 4.72159C16.4981 5.09659 16.9602 5.62311 17.2898 6.30114C17.6231 6.97917 17.7898 7.77273 17.7898 8.68182C17.7898 9.58333 17.6231 10.3712 17.2898 11.0455C16.9602 11.7197 16.4981 12.2443 15.9034 12.6193C15.3125 12.9943 14.6231 13.1818 13.8352 13.1818ZM13.8352 11.9773C14.4337 11.9773 14.9261 11.8239 15.3125 11.517C15.6989 11.2102 15.9848 10.8068 16.1705 10.3068C16.3561 9.80682 16.4489 9.26515 16.4489 8.68182C16.4489 8.09848 16.3561 7.55492 16.1705 7.05114C15.9848 6.54735 15.6989 6.14015 15.3125 5.82955C14.9261 5.51894 14.4337 5.36364 13.8352 5.36364C13.2367 5.36364 12.7443 5.51894 12.358 5.82955C11.9716 6.14015 11.6856 6.54735 11.5 7.05114C11.3144 7.55492 11.2216 8.09848 11.2216 8.68182C11.2216 9.26515 11.3144 9.80682 11.5 10.3068C11.6856 10.8068 11.9716 11.2102 12.358 11.517C12.7443 11.8239 13.2367 11.9773 13.8352 11.9773ZM19.8366 13V4.27273H21.1321V5.59091H21.223C21.3821 5.15909 21.67 4.80871 22.0866 4.53977C22.5033 4.27083 22.973 4.13636 23.4957 4.13636C23.5942 4.13636 23.7173 4.13826 23.8651 4.14205C24.0128 4.14583 24.1245 4.15152 24.2003 4.15909V5.52273C24.1548 5.51136 24.0507 5.49432 23.8878 5.47159C23.7287 5.44508 23.5601 5.43182 23.3821 5.43182C22.9579 5.43182 22.5791 5.52083 22.2457 5.69886C21.9162 5.87311 21.6548 6.11553 21.4616 6.42614C21.2723 6.73295 21.1776 7.08333 21.1776 7.47727V13H19.8366ZM30.1321 4.27273V5.40909H25.6094V4.27273H30.1321ZM26.9276 2.18182H28.2685V10.5C28.2685 10.8788 28.3234 11.1629 28.4332 11.3523C28.5469 11.5379 28.6908 11.6629 28.8651 11.7273C29.0431 11.7879 29.2306 11.8182 29.4276 11.8182C29.5753 11.8182 29.6965 11.8106 29.7912 11.7955C29.8859 11.7765 29.9616 11.7614 30.0185 11.75L30.2912 12.9545C30.2003 12.9886 30.0734 13.0227 29.9105 13.0568C29.7476 13.0947 29.5412 13.1136 29.2912 13.1136C28.9124 13.1136 28.5412 13.0322 28.1776 12.8693C27.8177 12.7064 27.5185 12.4583 27.2798 12.125C27.045 11.7917 26.9276 11.3712 26.9276 10.8636V2.18182ZM36.0355 4.27273V5.40909H31.331V4.27273H36.0355ZM32.7401 13V3.06818C32.7401 2.56818 32.8575 2.15151 33.0923 1.81818C33.3272 1.48485 33.6321 1.23485 34.0071 1.06818C34.3821 0.901514 34.7779 0.818181 35.1946 0.818181C35.5241 0.818181 35.7931 0.844696 36.0014 0.897727C36.2098 0.950757 36.3651 0.999999 36.4673 1.04545L36.081 2.20455C36.0128 2.18182 35.9181 2.15341 35.7969 2.11932C35.6795 2.08523 35.5241 2.06818 35.331 2.06818C34.8878 2.06818 34.5677 2.17992 34.3707 2.40341C34.1776 2.62689 34.081 2.95455 34.081 3.38636V13H32.7401ZM41.1009 13.1818C40.313 13.1818 39.6217 12.9943 39.027 12.6193C38.4361 12.2443 37.974 11.7197 37.6406 11.0455C37.3111 10.3712 37.1463 9.58333 37.1463 8.68182C37.1463 7.77273 37.3111 6.97917 37.6406 6.30114C37.974 5.62311 38.4361 5.09659 39.027 4.72159C39.6217 4.34659 40.313 4.15909 41.1009 4.15909C41.8887 4.15909 42.5781 4.34659 43.169 4.72159C43.7637 5.09659 44.2259 5.62311 44.5554 6.30114C44.8887 6.97917 45.0554 7.77273 45.0554 8.68182C45.0554 9.58333 44.8887 10.3712 44.5554 11.0455C44.2259 11.7197 43.7637 12.2443 43.169 12.6193C42.5781 12.9943 41.8887 13.1818 41.1009 13.1818ZM41.1009 11.9773C41.6993 11.9773 42.1918 11.8239 42.5781 11.517C42.9645 11.2102 43.2505 10.8068 43.4361 10.3068C43.6217 9.80682 43.7145 9.26515 43.7145 8.68182C43.7145 8.09848 43.6217 7.55492 43.4361 7.05114C43.2505 6.54735 42.9645 6.14015 42.5781 5.82955C42.1918 5.51894 41.6993 5.36364 41.1009 5.36364C40.5024 5.36364 40.0099 5.51894 39.6236 5.82955C39.2372 6.14015 38.9512 6.54735 38.7656 7.05114C38.58 7.55492 38.4872 8.09848 38.4872 8.68182C38.4872 9.26515 38.58 9.80682 38.7656 10.3068C38.9512 10.8068 39.2372 11.2102 39.6236 11.517C40.0099 11.8239 40.5024 11.9773 41.1009 11.9773ZM48.4432 1.36364V13H47.1023V1.36364H48.4432ZM50.8991 13V4.27273H52.2401V13H50.8991ZM51.581 2.81818C51.3196 2.81818 51.0942 2.72917 50.9048 2.55114C50.7192 2.37311 50.6264 2.15909 50.6264 1.90909C50.6264 1.65909 50.7192 1.44508 50.9048 1.26705C51.0942 1.08902 51.3196 1 51.581 1C51.8423 1 52.0658 1.08902 52.2514 1.26705C52.4408 1.44508 52.5355 1.65909 52.5355 1.90909C52.5355 2.15909 52.4408 2.37311 52.2514 2.55114C52.0658 2.72917 51.8423 2.81818 51.581 2.81818ZM58.2415 13.1818C57.4536 13.1818 56.7623 12.9943 56.1676 12.6193C55.5767 12.2443 55.1146 11.7197 54.7812 11.0455C54.4517 10.3712 54.2869 9.58333 54.2869 8.68182C54.2869 7.77273 54.4517 6.97917 54.7812 6.30114C55.1146 5.62311 55.5767 5.09659 56.1676 4.72159C56.7623 4.34659 57.4536 4.15909 58.2415 4.15909C59.0294 4.15909 59.7188 4.34659 60.3097 4.72159C60.9044 5.09659 61.3665 5.62311 61.696 6.30114C62.0294 6.97917 62.196 7.77273 62.196 8.68182C62.196 9.58333 62.0294 10.3712 61.696 11.0455C61.3665 11.7197 60.9044 12.2443 60.3097 12.6193C59.7188 12.9943 59.0294 13.1818 58.2415 13.1818ZM58.2415 11.9773C58.84 11.9773 59.3324 11.8239 59.7188 11.517C60.1051 11.2102 60.3911 10.8068 60.5767 10.3068C60.7623 9.80682 60.8551 9.26515 60.8551 8.68182C60.8551 8.09848 60.7623 7.55492 60.5767 7.05114C60.3911 6.54735 60.1051 6.14015 59.7188 5.82955C59.3324 5.51894 58.84 5.36364 58.2415 5.36364C57.643 5.36364 57.1506 5.51894 56.7642 5.82955C56.3778 6.14015 56.0919 6.54735 55.9062 7.05114C55.7206 7.55492 55.6278 8.09848 55.6278 8.68182C55.6278 9.26515 55.7206 9.80682 55.9062 10.3068C56.0919 10.8068 56.3778 11.2102 56.7642 11.517C57.1506 11.8239 57.643 11.9773 58.2415 11.9773ZM70.4247 6.22727L69.2202 6.56818C69.1444 6.36742 69.0327 6.17235 68.8849 5.98295C68.741 5.78977 68.544 5.63068 68.294 5.50568C68.044 5.38068 67.724 5.31818 67.3338 5.31818C66.7997 5.31818 66.3546 5.44129 65.9986 5.6875C65.6463 5.92992 65.4702 6.23864 65.4702 6.61364C65.4702 6.94697 65.5914 7.21023 65.8338 7.40341C66.0762 7.59659 66.455 7.75758 66.9702 7.88636L68.2656 8.20455C69.0459 8.39394 69.6274 8.68371 70.0099 9.07386C70.3925 9.46023 70.5838 9.95833 70.5838 10.5682C70.5838 11.0682 70.4399 11.5152 70.152 11.9091C69.8679 12.303 69.4702 12.6136 68.9588 12.8409C68.4474 13.0682 67.8527 13.1818 67.1747 13.1818C66.2846 13.1818 65.5478 12.9886 64.9645 12.6023C64.3812 12.2159 64.0118 11.6515 63.8565 10.9091L65.1293 10.5909C65.2505 11.0606 65.4796 11.4129 65.8168 11.6477C66.1577 11.8826 66.6027 12 67.152 12C67.777 12 68.2732 11.8674 68.6406 11.6023C69.0118 11.3333 69.1974 11.0114 69.1974 10.6364C69.1974 10.3333 69.0914 10.0795 68.8793 9.875C68.6671 9.66667 68.3414 9.51136 67.902 9.40909L66.4474 9.06818C65.6482 8.87879 65.0611 8.58523 64.6861 8.1875C64.3149 7.78598 64.1293 7.28409 64.1293 6.68182C64.1293 6.18939 64.2675 5.75379 64.544 5.375C64.8243 4.99621 65.205 4.69886 65.6861 4.48295C66.1709 4.26705 66.7202 4.15909 67.3338 4.15909C68.1974 4.15909 68.8755 4.34848 69.3679 4.72727C69.8641 5.10606 70.2164 5.60606 70.4247 6.22727Z" fill="#232E35"/>
</svg>
