<svg width="53" height="12" viewBox="0 0 53 12" fill="none" xmlns="http://www.w3.org/2000/svg">
<path d="M0.4731 11V0.818182H4.10236C4.89119 0.818182 5.54578 0.954072 6.06614 1.22585C6.58981 1.49763 6.98091 1.87382 7.23944 2.3544C7.49796 2.83168 7.62722 3.38352 7.62722 4.00994C7.62722 4.63305 7.4963 5.18158 7.23446 5.65554C6.97594 6.12618 6.58484 6.49242 6.06117 6.75426C5.54081 7.0161 4.88622 7.14702 4.09739 7.14702H1.3481V5.82457H3.95819C4.45534 5.82457 4.8597 5.75331 5.17125 5.6108C5.48612 5.46828 5.71647 5.26113 5.8623 4.98935C6.00814 4.71757 6.08105 4.3911 6.08105 4.00994C6.08105 3.62547 6.00648 3.29238 5.85733 3.01065C5.7115 2.72893 5.48115 2.51349 5.16628 2.36435C4.85473 2.21188 4.4454 2.13565 3.9383 2.13565H2.00932V11H0.4731ZM5.49938 6.40625L8.015 11H6.265L3.79909 6.40625H5.49938ZM12.5727 11.1541C11.8203 11.1541 11.1724 10.9934 10.6288 10.6719C10.0886 10.3471 9.67096 9.89134 9.37598 9.30469C9.08431 8.71473 8.93848 8.02367 8.93848 7.23153C8.93848 6.44934 9.08431 5.75994 9.37598 5.16335C9.67096 4.56676 10.0819 4.10109 10.6089 3.76633C11.1392 3.43158 11.759 3.2642 12.4683 3.2642C12.8992 3.2642 13.3168 3.33546 13.7211 3.47798C14.1255 3.6205 14.4884 3.84422 14.8099 4.14915C15.1314 4.45407 15.385 4.85014 15.5706 5.33736C15.7562 5.82126 15.849 6.40956 15.849 7.10227V7.62926H9.77868V6.51562H14.3923C14.3923 6.12453 14.3128 5.77817 14.1537 5.47656C13.9946 5.17164 13.7709 4.93134 13.4825 4.75568C13.1975 4.58002 12.8627 4.49219 12.4782 4.49219C12.0606 4.49219 11.6961 4.59493 11.3845 4.80043C11.0763 5.0026 10.8376 5.26776 10.6686 5.59588C10.5029 5.92069 10.42 6.27367 10.42 6.65483V7.52486C10.42 8.03527 10.5095 8.46946 10.6885 8.82741C10.8708 9.18537 11.1243 9.45881 11.4491 9.64773C11.7739 9.83333 12.1534 9.92614 12.5876 9.92614C12.8693 9.92614 13.1262 9.88636 13.3582 9.80682C13.5902 9.72396 13.7907 9.60133 13.9598 9.43892C14.1288 9.27652 14.2581 9.07599 14.3476 8.83736L15.7545 9.09091C15.6418 9.50521 15.4397 9.86813 15.148 10.1797C14.8596 10.4879 14.4967 10.7282 14.0592 10.9006C13.625 11.0696 13.1295 11.1541 12.5727 11.1541ZM23.2206 5.22798L21.8733 5.46662C21.817 5.29427 21.7275 5.13021 21.6048 4.97443C21.4855 4.81865 21.3231 4.69105 21.1176 4.59162C20.9121 4.49219 20.6553 4.44247 20.347 4.44247C19.9261 4.44247 19.5748 4.53693 19.2931 4.72585C19.0113 4.91146 18.8705 5.15175 18.8705 5.44673C18.8705 5.70194 18.9649 5.90743 19.1539 6.06321C19.3428 6.21899 19.6477 6.34659 20.0686 6.44602L21.2817 6.72443C21.9843 6.88684 22.508 7.13707 22.8527 7.47514C23.1974 7.81321 23.3698 8.25237 23.3698 8.79261C23.3698 9.25 23.2372 9.65767 22.972 10.0156C22.7102 10.3703 22.344 10.6487 21.8733 10.8509C21.406 11.053 20.8641 11.1541 20.2476 11.1541C19.3925 11.1541 18.6948 10.9718 18.1546 10.6072C17.6143 10.2393 17.2829 9.71733 17.1602 9.04119L18.597 8.82244C18.6865 9.19697 18.8705 9.48035 19.1489 9.67259C19.4273 9.86151 19.7902 9.95597 20.2377 9.95597C20.7249 9.95597 21.1143 9.85488 21.406 9.6527C21.6977 9.44721 21.8435 9.19697 21.8435 8.90199C21.8435 8.66335 21.754 8.46283 21.575 8.30043C21.3994 8.13802 21.1292 8.01539 20.7646 7.93253L19.472 7.64915C18.7594 7.48674 18.2325 7.22822 17.8911 6.87358C17.553 6.51894 17.384 6.06984 17.384 5.52628C17.384 5.07552 17.5099 4.68111 17.7618 4.34304C18.0137 4.00497 18.3617 3.74148 18.8058 3.55256C19.25 3.36032 19.7587 3.2642 20.3321 3.2642C21.1574 3.2642 21.807 3.44318 22.281 3.80114C22.7549 4.15578 23.0682 4.63139 23.2206 5.22798ZM29.8415 7.8331V3.36364H31.333V11H29.8714V9.67756H29.7918C29.6162 10.0852 29.3344 10.425 28.9466 10.6967C28.5622 10.9652 28.0832 11.0994 27.5099 11.0994C27.0193 11.0994 26.5851 10.9917 26.2073 10.7763C25.8328 10.5575 25.5378 10.2344 25.3224 9.80682C25.1102 9.37926 25.0042 8.85062 25.0042 8.22088V3.36364H26.4907V8.0419C26.4907 8.56226 26.6349 8.97656 26.9232 9.2848C27.2116 9.59304 27.5861 9.74716 28.0468 9.74716C28.3252 9.74716 28.6019 9.67756 28.877 9.53835C29.1555 9.39915 29.3858 9.18868 29.5681 8.90696C29.7537 8.62524 29.8448 8.26728 29.8415 7.8331ZM33.3303 11V3.36364H34.7572V4.60653H34.8517C35.0107 4.18561 35.2709 3.85748 35.6322 3.62216C35.9935 3.38352 36.426 3.2642 36.9298 3.2642C37.4402 3.2642 37.8677 3.38352 38.2124 3.62216C38.5605 3.8608 38.8173 4.18892 38.983 4.60653H39.0626C39.2449 4.19886 39.5349 3.87405 39.9326 3.6321C40.3303 3.38684 40.8043 3.2642 41.3545 3.2642C42.0472 3.2642 42.6123 3.4813 43.0498 3.91548C43.4906 4.34967 43.711 5.00426 43.711 5.87926V11H42.2245V6.01847C42.2245 5.50142 42.0837 5.12689 41.8019 4.89489C41.5202 4.66288 41.1838 4.54688 40.7927 4.54688C40.3088 4.54688 39.9326 4.69602 39.6642 4.99432C39.3957 5.2893 39.2615 5.6688 39.2615 6.13281V11H37.7799V5.92401C37.7799 5.50971 37.6507 5.17661 37.3921 4.92472C37.1336 4.67282 36.7972 4.54688 36.3829 4.54688C36.1012 4.54688 35.841 4.62145 35.6024 4.7706C35.367 4.91643 35.1765 5.12026 35.0306 5.3821C34.8881 5.64394 34.8169 5.94721 34.8169 6.2919V11H33.3303ZM48.9946 11.1541C48.2422 11.1541 47.5943 10.9934 47.0507 10.6719C46.5104 10.3471 46.0928 9.89134 45.7979 9.30469C45.5062 8.71473 45.3604 8.02367 45.3604 7.23153C45.3604 6.44934 45.5062 5.75994 45.7979 5.16335C46.0928 4.56676 46.5038 4.10109 47.0308 3.76633C47.5611 3.43158 48.1809 3.2642 48.8902 3.2642C49.3211 3.2642 49.7387 3.33546 50.143 3.47798C50.5474 3.6205 50.9103 3.84422 51.2318 4.14915C51.5533 4.45407 51.8068 4.85014 51.9925 5.33736C52.1781 5.82126 52.2709 6.40956 52.2709 7.10227V7.62926H46.2006V6.51562H50.8142C50.8142 6.12453 50.7346 5.77817 50.5756 5.47656C50.4165 5.17164 50.1927 4.93134 49.9044 4.75568C49.6193 4.58002 49.2846 4.49219 48.9001 4.49219C48.4825 4.49219 48.1179 4.59493 47.8064 4.80043C47.4981 5.0026 47.2595 5.26776 47.0905 5.59588C46.9247 5.92069 46.8419 6.27367 46.8419 6.65483V7.52486C46.8419 8.03527 46.9314 8.46946 47.1104 8.82741C47.2926 9.18537 47.5462 9.45881 47.871 9.64773C48.1958 9.83333 48.5753 9.92614 49.0095 9.92614C49.2912 9.92614 49.5481 9.88636 49.7801 9.80682C50.0121 9.72396 50.2126 9.60133 50.3817 9.43892C50.5507 9.27652 50.68 9.07599 50.7694 8.83736L52.1764 9.09091C52.0637 9.50521 51.8615 9.86813 51.5699 10.1797C51.2815 10.4879 50.9186 10.7282 50.4811 10.9006C50.0469 11.0696 49.5514 11.1541 48.9946 11.1541Z" fill="#232E35"/>
</svg>
