<svg width="66" height="14" viewBox="0 0 66 14" fill="none" xmlns="http://www.w3.org/2000/svg">
<path d="M7.625 4.42045C7.56439 3.88258 7.31439 3.46591 6.875 3.17045C6.43561 2.87121 5.88258 2.72159 5.21591 2.72159C4.73864 2.72159 4.32576 2.79735 3.97727 2.94886C3.62879 3.09659 3.35795 3.30114 3.16477 3.5625C2.97538 3.82008 2.88068 4.11364 2.88068 4.44318C2.88068 4.7197 2.94508 4.95833 3.07386 5.15909C3.20644 5.35985 3.37879 5.52841 3.59091 5.66477C3.80682 5.79735 4.03788 5.90909 4.28409 6C4.5303 6.08712 4.76705 6.15909 4.99432 6.21591L6.13068 6.51136C6.50189 6.60227 6.88258 6.72538 7.27273 6.88068C7.66288 7.03598 8.02462 7.24053 8.35795 7.49432C8.69129 7.74811 8.96023 8.0625 9.16477 8.4375C9.37311 8.8125 9.47727 9.26136 9.47727 9.78409C9.47727 10.4432 9.30682 11.0284 8.96591 11.5398C8.62879 12.0511 8.13826 12.4545 7.49432 12.75C6.85417 13.0455 6.07955 13.1932 5.17045 13.1932C4.29924 13.1932 3.54545 13.0549 2.90909 12.7784C2.27273 12.5019 1.77462 12.1098 1.41477 11.6023C1.05492 11.0909 0.856061 10.4848 0.818182 9.78409H2.57955C2.61364 10.2045 2.75 10.5549 2.98864 10.8352C3.23106 11.1117 3.53977 11.3182 3.91477 11.4545C4.29356 11.5871 4.70833 11.6534 5.15909 11.6534C5.6553 11.6534 6.09659 11.5758 6.48295 11.4205C6.87311 11.2614 7.17992 11.0417 7.40341 10.7614C7.62689 10.4773 7.73864 10.1458 7.73864 9.76705C7.73864 9.42235 7.64015 9.14015 7.44318 8.92045C7.25 8.70076 6.98674 8.51894 6.65341 8.375C6.32386 8.23106 5.95076 8.10417 5.53409 7.99432L4.15909 7.61932C3.22727 7.36553 2.48864 6.99242 1.94318 6.5C1.40152 6.00758 1.13068 5.35606 1.13068 4.54545C1.13068 3.875 1.3125 3.28977 1.67614 2.78977C2.03977 2.28977 2.5322 1.90151 3.15341 1.625C3.77462 1.3447 4.47538 1.20455 5.25568 1.20455C6.04356 1.20455 6.73864 1.3428 7.34091 1.61932C7.94697 1.89583 8.42424 2.27652 8.77273 2.76136C9.12121 3.24242 9.30303 3.79545 9.31818 4.42045H7.625ZM15.2003 13.1761C14.3404 13.1761 13.5999 12.9924 12.9787 12.625C12.3613 12.2538 11.884 11.733 11.5469 11.0625C11.2135 10.3883 11.0469 9.59848 11.0469 8.69318C11.0469 7.79924 11.2135 7.01136 11.5469 6.32955C11.884 5.64773 12.3537 5.11553 12.956 4.73295C13.562 4.35038 14.2704 4.15909 15.081 4.15909C15.5734 4.15909 16.0507 4.24053 16.5128 4.40341C16.9749 4.56629 17.3897 4.82197 17.7571 5.17045C18.1245 5.51894 18.4143 5.97159 18.6264 6.52841C18.8385 7.08144 18.9446 7.75379 18.9446 8.54545V9.14773H12.0071V7.875H17.2798C17.2798 7.42803 17.1889 7.0322 17.0071 6.6875C16.8253 6.33902 16.5696 6.06439 16.2401 5.86364C15.9143 5.66288 15.5317 5.5625 15.0923 5.5625C14.6151 5.5625 14.1984 5.67992 13.8423 5.91477C13.4901 6.14583 13.2173 6.44886 13.0241 6.82386C12.8348 7.19508 12.7401 7.59848 12.7401 8.03409V9.02841C12.7401 9.61174 12.8423 10.108 13.0469 10.517C13.2552 10.9261 13.545 11.2386 13.9162 11.4545C14.2874 11.6667 14.7211 11.7727 15.2173 11.7727C15.5393 11.7727 15.8329 11.7273 16.098 11.6364C16.3632 11.5417 16.5923 11.4015 16.7855 11.2159C16.9787 11.0303 17.1264 10.8011 17.2287 10.5284L18.8366 10.8182C18.7079 11.2917 18.4768 11.7064 18.1435 12.0625C17.8139 12.4148 17.3991 12.6894 16.8991 12.8864C16.4029 13.0795 15.8366 13.1761 15.2003 13.1761ZM20.8295 13V4.27273H22.4716V5.65909H22.5625C22.7216 5.18939 23.0019 4.82008 23.4034 4.55114C23.8087 4.27841 24.267 4.14205 24.7784 4.14205C24.8845 4.14205 25.0095 4.14583 25.1534 4.15341C25.3011 4.16098 25.4167 4.17045 25.5 4.18182V5.80682C25.4318 5.78788 25.3106 5.76705 25.1364 5.74432C24.9621 5.7178 24.7879 5.70455 24.6136 5.70455C24.2121 5.70455 23.8542 5.78977 23.5398 5.96023C23.2292 6.12689 22.983 6.35985 22.8011 6.65909C22.6193 6.95455 22.5284 7.29167 22.5284 7.67045V13H20.8295ZM34.7017 4.27273L31.5369 13H29.7188L26.5483 4.27273H28.3722L30.5824 10.9886H30.6733L32.8778 4.27273H34.7017ZM36.2983 13V4.27273H37.9972V13H36.2983ZM37.1562 2.92614C36.8608 2.92614 36.607 2.82765 36.3949 2.63068C36.1866 2.42992 36.0824 2.19129 36.0824 1.91477C36.0824 1.63447 36.1866 1.39583 36.3949 1.19886C36.607 0.998106 36.8608 0.897727 37.1562 0.897727C37.4517 0.897727 37.7036 0.998106 37.9119 1.19886C38.1241 1.39583 38.2301 1.63447 38.2301 1.91477C38.2301 2.19129 38.1241 2.42992 37.9119 2.63068C37.7036 2.82765 37.4517 2.92614 37.1562 2.92614ZM43.9588 13.1761C43.1141 13.1761 42.3868 12.9848 41.777 12.6023C41.1709 12.2159 40.705 11.6837 40.3793 11.0057C40.0535 10.3277 39.8906 9.55114 39.8906 8.67614C39.8906 7.78977 40.0573 7.00758 40.3906 6.32955C40.724 5.64773 41.1937 5.11553 41.7997 4.73295C42.4058 4.35038 43.1198 4.15909 43.9418 4.15909C44.6046 4.15909 45.1955 4.2822 45.7145 4.52841C46.2334 4.77083 46.652 5.11174 46.9702 5.55114C47.2921 5.99053 47.4834 6.50379 47.544 7.09091H45.8906C45.7997 6.68182 45.5914 6.32955 45.2656 6.03409C44.9437 5.73864 44.5118 5.59091 43.9702 5.59091C43.4967 5.59091 43.0819 5.71591 42.7259 5.96591C42.3736 6.21212 42.099 6.56439 41.902 7.02273C41.705 7.47727 41.6065 8.01515 41.6065 8.63636C41.6065 9.27273 41.7031 9.82197 41.8963 10.2841C42.0895 10.7462 42.3622 11.1042 42.7145 11.358C43.0705 11.6117 43.4891 11.7386 43.9702 11.7386C44.2921 11.7386 44.5838 11.6799 44.8452 11.5625C45.1103 11.4413 45.3319 11.2689 45.5099 11.0455C45.6918 10.822 45.8187 10.553 45.8906 10.2386H47.544C47.4834 10.803 47.2997 11.3068 46.9929 11.75C46.6861 12.1932 46.2751 12.5417 45.7599 12.7955C45.2486 13.0492 44.6482 13.1761 43.9588 13.1761ZM53.1222 13.1761C52.2623 13.1761 51.5218 12.9924 50.9006 12.625C50.2831 12.2538 49.8059 11.733 49.4688 11.0625C49.1354 10.3883 48.9688 9.59848 48.9688 8.69318C48.9688 7.79924 49.1354 7.01136 49.4688 6.32955C49.8059 5.64773 50.2756 5.11553 50.8778 4.73295C51.4839 4.35038 52.1922 4.15909 53.0028 4.15909C53.4953 4.15909 53.9725 4.24053 54.4347 4.40341C54.8968 4.56629 55.3116 4.82197 55.679 5.17045C56.0464 5.51894 56.3362 5.97159 56.5483 6.52841C56.7604 7.08144 56.8665 7.75379 56.8665 8.54545V9.14773H49.929V7.875H55.2017C55.2017 7.42803 55.1108 7.0322 54.929 6.6875C54.7472 6.33902 54.4915 6.06439 54.1619 5.86364C53.8362 5.66288 53.4536 5.5625 53.0142 5.5625C52.5369 5.5625 52.1203 5.67992 51.7642 5.91477C51.4119 6.14583 51.1392 6.44886 50.946 6.82386C50.7566 7.19508 50.6619 7.59848 50.6619 8.03409V9.02841C50.6619 9.61174 50.7642 10.108 50.9688 10.517C51.1771 10.9261 51.4669 11.2386 51.8381 11.4545C52.2093 11.6667 52.643 11.7727 53.1392 11.7727C53.4612 11.7727 53.7547 11.7273 54.0199 11.6364C54.285 11.5417 54.5142 11.4015 54.7074 11.2159C54.9006 11.0303 55.0483 10.8011 55.1506 10.5284L56.7585 10.8182C56.6297 11.2917 56.3987 11.7064 56.0653 12.0625C55.7358 12.4148 55.321 12.6894 54.821 12.8864C54.3248 13.0795 53.7585 13.1761 53.1222 13.1761ZM65.2912 6.40341L63.7514 6.67614C63.687 6.47917 63.5848 6.29167 63.4446 6.11364C63.3082 5.93561 63.1226 5.78977 62.8878 5.67614C62.6529 5.5625 62.3594 5.50568 62.0071 5.50568C61.526 5.50568 61.1245 5.61364 60.8026 5.82955C60.4806 6.04167 60.3196 6.31629 60.3196 6.65341C60.3196 6.94508 60.4276 7.17992 60.6435 7.35795C60.8594 7.53598 61.2079 7.68182 61.6889 7.79545L63.0753 8.11364C63.8783 8.29924 64.4768 8.58523 64.8707 8.97159C65.2647 9.35795 65.4616 9.85985 65.4616 10.4773C65.4616 11 65.3101 11.4659 65.0071 11.875C64.7079 12.2803 64.2893 12.5985 63.7514 12.8295C63.2173 13.0606 62.598 13.1761 61.8935 13.1761C60.9162 13.1761 60.1188 12.9678 59.5014 12.5511C58.884 12.1307 58.5052 11.5341 58.3651 10.7614L60.0071 10.5114C60.1094 10.9394 60.3196 11.2633 60.6378 11.483C60.956 11.6989 61.3707 11.8068 61.8821 11.8068C62.4389 11.8068 62.884 11.6913 63.2173 11.4602C63.5507 11.2254 63.7173 10.9394 63.7173 10.6023C63.7173 10.3295 63.6151 10.1004 63.4105 9.91477C63.2098 9.72917 62.901 9.58902 62.4844 9.49432L61.0071 9.17045C60.1927 8.98485 59.5904 8.68939 59.2003 8.28409C58.8139 7.87879 58.6207 7.36553 58.6207 6.74432C58.6207 6.22917 58.7647 5.77841 59.0526 5.39205C59.3404 5.00568 59.7382 4.70455 60.2457 4.48864C60.7533 4.26894 61.3348 4.15909 61.9901 4.15909C62.9332 4.15909 63.6757 4.36364 64.2173 4.77273C64.759 5.17803 65.117 5.72159 65.2912 6.40341Z" fill="#232E35"/>
</svg>
